<svg width="14" height="18" viewBox="0 0 14 18" fill="none" xmlns="http://www.w3.org/2000/svg">
<path d="M13.7476 3.64321C13.7464 3.53507 13.7046 3.42911 13.6251 3.34958L10.399 0.123434C10.3989 0.123293 10.3988 0.123258 10.3986 0.123152C10.3224 0.0470391 10.2172 0 10.101 0H1.13868C0.649407 0 0.251404 0.397969 0.251404 0.887238V17.1127C0.251404 17.602 0.649372 18 1.13864 18H12.8613C13.3505 18 13.7485 17.602 13.7485 17.1127V3.64757C13.7486 3.64602 13.7478 3.64472 13.7476 3.64321ZM10.5224 1.43898L12.3096 3.22611H10.5668C10.5424 3.22611 10.5224 3.20618 10.5224 3.18175V1.43898ZM12.9056 17.1128C12.9056 17.1372 12.8857 17.1571 12.8613 17.1571H1.13868C1.11424 17.1571 1.09434 17.1372 1.09434 17.1128V0.887238C1.09434 0.862805 1.11424 0.842906 1.13868 0.842906H9.67953V3.18175C9.67953 3.67098 10.0776 4.06905 10.5668 4.06905H12.9057V17.1128H12.9056Z" fill="#252061"/>
<path d="M10.7296 5.76611H3.27033C3.0376 5.76611 2.84888 5.9548 2.84888 6.18757C2.84888 6.4203 3.0376 6.60902 3.27033 6.60902H10.7296C10.9623 6.60902 11.1511 6.4203 11.1511 6.18757C11.1511 5.9548 10.9623 5.76611 10.7296 5.76611Z" fill="#252061"/>
<path d="M10.7296 8.30908H3.27033C3.0376 8.30908 2.84888 8.4978 2.84888 8.73054C2.84888 8.96327 3.0376 9.15199 3.27033 9.15199H10.7296C10.9623 9.15199 11.1511 8.96327 11.1511 8.73054C11.1511 8.4978 10.9623 8.30908 10.7296 8.30908Z" fill="#252061"/>
<path d="M10.7296 10.8525H3.27033C3.0376 10.8525 2.84888 11.0413 2.84888 11.274C2.84888 11.5068 3.0376 11.6954 3.27033 11.6954H10.7296C10.9623 11.6954 11.1511 11.5068 11.1511 11.274C11.1511 11.0413 10.9623 10.8525 10.7296 10.8525Z" fill="#252061"/>
<path d="M6.99999 13.3955H3.27033C3.0376 13.3955 2.84888 13.5842 2.84888 13.817C2.84888 14.0497 3.0376 14.2384 3.27033 14.2384H6.99999C7.23272 14.2384 7.42144 14.0497 7.42144 13.817C7.42144 13.5842 7.23272 13.3955 6.99999 13.3955Z" fill="#252061"/>
</svg>
