<?xml version="1.0" encoding="utf-8"?><svg viewBox="0 0 64 69" xmlns="http://www.w3.org/2000/svg" xmlns:xlink="http://www.w3.org/1999/xlink"><style>:root>svg{display:none}:root>svg:target{display:block}</style><svg viewBox="0 0 30 24" id="arrow" xmlns="http://www.w3.org/2000/svg"><path d="M29.952 15.512a.595.595 0 00-.136-.204L22.317 7.81a.626.626 0 00-.884.884l6.433 6.433H15.625C7.699 15.126 1.25 8.676 1.25.75A.625.625 0 000 .75c0 8.616 7.009 15.624 15.625 15.624h12.241l-6.432 6.433a.625.625 0 10.885.884l7.498-7.499a.62.62 0 00.135-.681z"/></svg><svg viewBox="0 0 14 15" id="arrow-right" xmlns="http://www.w3.org/2000/svg"><path d="M1.578 14.845c-.18.103-.406.155-.654.155s-.473-.052-.653-.155c-.361-.207-.361-.543 0-.75L11.768 7.5.271.905C-.09.698-.09.362.27.155c.36-.207.946-.207 1.307 0l12.151 6.97c.361.207.361.543 0 .75l-12.15 6.97z"/></svg><svg viewBox="0 0 22 20" id="home" xmlns="http://www.w3.org/2000/svg"><path d="M21.766 7.94L11.338.305a.572.572 0 00-.676 0L.234 7.94a.572.572 0 10.675.923L11 1.474l10.09 7.389a.569.569 0 00.8-.124.572.572 0 00-.124-.799z"/><path d="M19.003 8.992a.572.572 0 00-.572.572v9.098h-4.573v-4.966A2.862 2.862 0 0011 10.837a2.862 2.862 0 00-2.858 2.859v4.966H3.569V9.564a.572.572 0 00-1.143 0v9.67c0 .316.256.572.571.572h5.716a.571.571 0 00.572-.572v-5.538c0-.946.77-1.715 1.715-1.715.946 0 1.715.77 1.715 1.715v5.538l.002.044a.571.571 0 00.57.528h5.716a.572.572 0 00.571-.572v-9.67a.572.572 0 00-.571-.572z"/></svg><svg viewBox="0 0 64 69" id="logo" xmlns="http://www.w3.org/2000/svg"><path d="M32 0c-5.34 0-10.56 1.437-15 4.129-4.44 2.692-7.901 6.519-9.945 10.995-2.043 4.477-2.578 9.403-1.536 14.156 1.042 4.752 3.613 9.118 7.39 12.544 3.775 3.427 8.586 5.76 13.824 6.705 5.237.946 10.666.46 15.6-1.394 4.933-1.854 9.15-4.994 12.117-9.023C57.416 34.081 59 29.346 59 24.5c-.008-6.495-2.855-12.723-7.917-17.316C46.02 2.591 39.158.007 32 0zm18.453 11.71l-6.06 9.419-11.245-17.68c3.372.154 6.668.972 9.656 2.399 2.989 1.426 5.599 3.427 7.649 5.862zM26.976 32.48l-5.137-8 5.082-7.96h10.183l5.113 8.03-5.113 7.93H26.977zM28.88 3.61l6.018 9.469h-22.4c1.817-2.558 4.221-4.729 7.05-6.364a24.762 24.762 0 019.335-3.106h-.003zM10.511 16.49h12.034L11.325 34.1c-1.69-2.974-2.57-6.274-2.567-9.62a19.512 19.512 0 011.753-7.961v-.03zm3.12 20.87l6.026-9.46 4.363 6.82c.085.251.233.481.432.672l6.536 10.178a25.11 25.11 0 01-9.673-2.352c-2.998-1.412-5.62-3.4-7.684-5.827v-.03zm21.6 7.992l-6.07-9.43h22.35c-1.813 2.535-4.202 4.69-7.009 6.318a24.855 24.855 0 01-9.262 3.12l-.01-.008zm18.249-12.88H41.445l11.25-17.5a19.554 19.554 0 012.485 8.673c.133 3.02-.451 6.03-1.713 8.827h.013zM4.179 68.742l-1.23-2.937v2.937H.914v-8.187H3.94a2.47 2.47 0 011.349.353c.35.208.641.542.84.96.19.416.286.89.28 1.37a2.865 2.865 0 01-.363 1.445c-.258.44-.624.762-1.041.914l1.412 3.134-2.238.011zm-1.23-4.648h.808c.16.016.32-.046.445-.174a.716.716 0 00.119-.243.835.835 0 00.028-.283.842.842 0 00-.034-.274.722.722 0 00-.118-.235.532.532 0 00-.436-.185H2.95v1.394zm8.166-1.504v1.018h2.018v1.931h-2.018v1.157h2.293v2.046h-4.33v-8.187h4.33v2.024l-2.293.012zm9.812 5.007a2.17 2.17 0 01-.84.897c-.412.231-.86.344-1.312.33-.682.035-1.356-.206-1.922-.689a2.47 2.47 0 01-.6-.889 3.076 3.076 0 01-.22-1.134h2.16c.03.47.197.705.495.705a.328.328 0 00.252-.104.384.384 0 00.074-.131.613.613 0 00-.04-.428.455.455 0 00-.167-.187 4.31 4.31 0 00-.757-.387 6.006 6.006 0 01-1.023-.52 2.267 2.267 0 01-.71-.787 3.023 3.023 0 01-.303-1.36c.004-.48.117-.95.325-1.352.228-.382.536-.677.89-.85a2.77 2.77 0 011.271-.289c.661-.044 1.315.197 1.853.683.232.238.42.538.55.877.13.34.199.711.203 1.088h-2.193c-.03-.43-.17-.647-.422-.647a.27.27 0 00-.211.098.418.418 0 00-.065.134.586.586 0 00.047.414.43.43 0 00.165.175c.233.155.477.285.729.387.354.153.698.337 1.032.55.284.193.528.466.716.797.215.396.322.869.307 1.348.006.45-.093.892-.284 1.272zm7.867-6.643c.502.353.919.87 1.206 1.498a5.38 5.38 0 01.448 2.168A5.38 5.38 0 0130 66.788c-.288.63-.706 1.15-1.211 1.503a2.937 2.937 0 01-1.679.544 2.937 2.937 0 01-1.679-.544c-.505-.354-.925-.873-1.215-1.503a5.327 5.327 0 01-.453-2.168c0-.76.156-1.507.453-2.168.29-.628.71-1.145 1.215-1.498a2.969 2.969 0 011.681-.538c.588 0 1.166.185 1.682.538zm-2.624 2.313a2.38 2.38 0 00-.33 1.336c-.02.477.096.947.33 1.324.123.155.27.28.431.364.161.084.334.127.51.127.174 0 .347-.043.508-.127.162-.085.308-.209.431-.364.234-.377.351-.847.33-1.324a2.38 2.38 0 00-.33-1.336 1.358 1.358 0 00-.43-.364 1.095 1.095 0 00-.51-.128c-.175 0-.348.044-.509.128a1.358 1.358 0 00-.431.364zm9.018-2.712v4.626a1.74 1.74 0 00.197.896.787.787 0 00.287.263c.111.057.232.08.35.066a.641.641 0 00.357-.068.815.815 0 00.295-.261c.15-.26.225-.576.211-.896v-4.626h2.028v4.626a4.688 4.688 0 01-.385 1.994c-.245.539-.613.972-1.056 1.243a2.77 2.77 0 01-1.495.417 2.611 2.611 0 01-1.463-.416c-.424-.276-.771-.707-.996-1.238a5 5 0 01-.357-2v-4.626h2.027zm9.89 8.187l-1.23-2.937v2.937h-2.032v-8.187h3.028c.465-.015.927.105 1.349.353.349.208.641.542.84.96.188.417.285.89.279 1.37a2.887 2.887 0 01-.362 1.445c-.26.44-.625.761-1.042.914l1.413 3.145h-2.243zm-1.23-4.648h.808a.55.55 0 00.44-.168.716.716 0 00.12-.243.836.836 0 00.027-.283.843.843 0 00-.033-.274.723.723 0 00-.118-.235.532.532 0 00-.436-.185h-.807v1.388zm10.666-3.221c.431.254.804.642 1.082 1.128.285.506.475 1.087.555 1.7h-2.146a1.444 1.444 0 00-.418-.63.943.943 0 00-.62-.226.805.805 0 00-.452.117 1.05 1.05 0 00-.359.369 2.95 2.95 0 00-.295 1.3c0 .46.102.911.295 1.301.094.158.217.284.359.368a.804.804 0 00.453.118.942.942 0 00.62-.226c.184-.154.329-.373.417-.63h2.146a4.737 4.737 0 01-.555 1.7 3.051 3.051 0 01-1.082 1.128c-.473.273-.989.41-1.51.398a2.813 2.813 0 01-1.706-.526c-.478-.342-.866-.855-1.114-1.474a6.109 6.109 0 01-.392-2.168c0-.75.133-1.492.392-2.168.25-.618.637-1.13 1.114-1.474a2.832 2.832 0 011.707-.527 2.886 2.886 0 011.509.422zm6.426 1.717v1.018h2.019v1.931H60.94v1.157h2.294v2.046h-4.33v-8.187h4.33v2.024l-2.294.012z"/></svg><svg viewBox="0 0 25 21" id="search" xmlns="http://www.w3.org/2000/svg"><path d="M24.756 19.929l-6.07-5.103c1.628-1.574 2.614-3.628 2.614-5.872C21.3 4.014 16.52 0 10.65 0 4.774 0 0 4.018 0 8.954c0 4.936 4.78 8.954 10.65 8.954 2.67 0 5.112-.829 6.984-2.198l6.07 5.104a.83.83 0 00.526.186c.188 0 .382-.06.526-.186a.56.56 0 000-.885zM1.49 8.954c0-4.246 4.11-7.697 9.155-7.697 5.05 0 9.154 3.455 9.154 7.697s-4.104 7.702-9.154 7.702c-5.046 0-9.155-3.455-9.155-7.702z"/></svg></svg>